<svg id="svg" version="1.1" xmlns="http://www.w3.org/2000/svg" xmlns:xlink="http://www.w3.org/1999/xlink" width="400" height="150.28901734104048" viewBox="0, 0, 400,150.28901734104048"><g id="svgg"><path id="path0" d="M70.259 4.335 C 66.377 8.759,51.319 35.050,43.379 51.267 L 34.977 68.429 30.642 59.776 C 28.258 55.017,23.789 47.814,20.710 43.770 C 17.632 39.725,15.094 35.276,15.071 33.883 C 15.020 30.811,14.608 30.542,8.382 29.512 C 2.432 28.527,2.159 29.642,6.997 35.152 L 10.525 39.171 9.723 66.695 C 8.833 97.239,9.745 116.763,12.063 116.763 C 13.487 116.763,15.000 88.366,15.047 60.797 C 15.071 46.520,16.023 45.504,21.275 54.151 C 30.501 69.338,32.620 75.619,31.110 83.297 C 28.208 98.046,32.181 108.994,39.042 105.156 C 43.371 102.734,44.003 92.887,40.496 82.504 L 38.086 75.369 40.850 68.031 C 47.747 49.723,71.527 7.108,71.640 12.853 C 71.695 15.651,67.385 58.384,64.134 87.283 C 61.142 113.877,60.463 132.312,62.430 133.527 C 64.267 134.663,65.504 129.757,66.366 117.919 C 66.805 111.879,68.923 92.110,71.072 73.988 C 78.919 7.826,78.765 -5.358,70.259 4.335 M283.838 9.381 C 260.064 12.843,234.735 23.601,230.986 31.830 C 227.498 39.485,234.825 43.947,259.374 49.122 L 262.679 49.818 262.255 71.252 C 261.763 96.104,262.958 93.801,247.546 99.572 C 238.219 103.064,236.260 103.360,217.341 104.135 C 193.255 105.121,195.072 104.932,195.954 106.358 C 196.354 107.005,201.800 107.514,208.322 107.514 C 217.494 107.514,220.254 107.895,221.281 109.299 C 222.687 111.221,243.326 106.087,255.780 100.716 L 261.272 98.348 261.272 122.584 C 261.272 146.050,261.345 146.821,263.584 146.821 C 265.757 146.821,265.904 146.003,266.038 133.237 C 266.116 125.766,266.506 114.206,266.905 107.548 L 267.630 95.442 277.339 90.100 C 289.984 83.143,303.480 73.113,311.472 64.734 L 317.864 58.033 317.141 80.564 L 316.417 103.096 319.191 102.704 C 321.466 102.383,322.029 101.545,322.320 98.046 L 322.675 93.780 326.843 98.394 C 329.994 101.882,331.741 102.923,334.003 102.660 C 338.530 102.134,337.618 99.897,331.221 95.840 L 325.449 92.179 328.329 90.309 C 332.834 87.384,336.536 82.982,336.159 80.998 C 335.745 78.827,330.877 77.909,329.115 79.671 C 325.898 82.888,326.415 80.369,329.994 75.387 C 332.182 72.341,335.551 66.848,337.480 63.180 L 340.989 56.511 340.966 72.758 C 340.929 99.887,347.241 109.638,357.925 98.954 L 361.861 95.018 362.559 97.798 C 363.631 102.072,366.194 101.146,366.860 96.243 C 368.170 86.596,367.807 80.920,365.833 80.163 C 363.424 79.238,361.890 81.598,361.867 86.268 C 361.855 88.819,360.521 91.359,357.316 94.938 C 351.855 101.035,349.299 100.384,347.257 92.375 L 345.959 87.283 352.216 80.942 C 363.120 69.891,368.442 55.557,367.343 40.195 C 365.864 19.534,353.437 13.704,346.596 30.462 C 345.387 33.425,344.611 34.376,344.569 32.948 C 344.449 28.940,340.100 23.109,336.705 22.402 C 334.862 22.019,332.544 20.209,331.190 18.096 C 325.681 9.498,306.843 6.031,283.838 9.381 M317.325 14.368 C 327.308 18.543,328.722 21.773,324.343 30.405 C 322.794 33.456,320.954 38.713,320.254 42.086 C 317.945 53.208,302.195 69.244,279.555 83.526 C 273.759 87.182,268.575 90.173,268.035 90.173 C 267.494 90.173,267.052 81.157,267.052 70.136 L 267.052 50.099 273.559 50.638 C 282.253 51.359,281.652 48.488,272.746 46.760 C 266.509 45.550,266.470 45.517,265.821 40.712 C 264.736 32.683,261.272 32.544,261.272 40.531 C 261.272 45.803,261.869 45.629,252.097 43.204 C 233.036 38.476,230.344 33.342,242.960 25.779 C 262.235 14.224,302.284 8.078,317.325 14.368 M360.375 26.879 C 366.478 38.050,361.879 63.143,351.321 76.282 C 345.986 82.921,345.482 82.261,346.264 69.653 C 348.440 34.564,354.514 16.152,360.375 26.879 M338.651 26.879 C 344.482 36.157,340.538 52.105,327.183 73.250 C 321.194 82.734,321.053 82.730,321.879 73.121 C 323.594 53.173,323.954 51.450,327.879 44.389 C 330.036 40.509,332.391 34.396,333.112 30.805 C 334.517 23.809,336.042 22.728,338.651 26.879 M172.080 57.267 C 171.382 61.727,171.874 65.895,173.099 65.896 C 175.503 65.896,176.262 60.159,174.138 58.036 C 173.102 57.000,172.176 56.654,172.080 57.267 M310.226 71.148 C 309.849 72.129,309.843 73.234,310.212 73.603 C 311.378 74.770,314.451 72.980,314.451 71.135 C 314.451 68.827,311.112 68.838,310.226 71.148 M364.561 71.148 C 364.184 72.129,364.178 73.234,364.547 73.603 C 365.714 74.770,368.786 72.980,368.786 71.135 C 368.786 68.827,365.447 68.838,364.561 71.148 M122.941 72.569 C 121.570 73.668,119.434 76.271,118.195 78.355 C 116.252 81.620,115.742 81.903,114.497 80.402 C 112.631 78.154,109.091 79.892,107.235 83.968 L 105.913 86.868 103.903 84.203 C 101.095 80.480,100.134 82.128,100.358 90.276 C 100.663 101.332,103.252 102.137,107.411 92.469 C 110.303 85.746,112.413 83.888,111.399 88.957 C 109.410 98.902,115.765 97.001,119.091 86.657 C 123.095 74.203,125.400 73.420,124.543 84.803 C 123.439 99.472,127.591 103.415,136.298 95.969 L 140.227 92.609 142.452 95.438 C 145.143 98.858,146.768 98.971,150.546 95.999 L 153.428 93.733 154.724 96.577 C 158.408 104.664,159.786 97.897,158.441 78.324 C 158.408 77.847,157.590 77.457,156.623 77.457 C 154.749 77.457,153.639 79.660,151.497 87.633 C 149.116 96.492,145.239 95.728,144.926 86.339 C 144.671 78.698,140.717 77.287,140.107 84.620 C 139.843 87.807,138.722 89.798,135.703 92.449 C 129.980 97.474,129.188 96.313,130.129 84.285 C 131.158 71.121,129.046 67.677,122.941 72.569 M92.157 78.260 C 91.858 78.772,90.747 82.207,89.689 85.893 C 86.707 96.279,82.725 96.558,82.578 86.391 C 82.437 76.698,77.511 77.688,77.474 87.416 C 77.442 96.072,82.669 100.286,88.119 95.999 L 91.000 93.733 92.334 96.660 C 93.932 100.167,97.908 100.029,97.295 96.487 C 97.079 95.240,96.819 90.585,96.717 86.143 C 96.542 78.528,94.283 74.622,92.157 78.260 M182.226 80.367 C 179.646 82.947,179.862 84.796,183.210 88.774 L 186.073 92.177 183.737 94.290 C 180.580 97.147,181.316 100.842,185.321 102.244 C 192.869 104.888,195.405 97.512,189.686 89.549 C 185.504 83.726,185.251 82.081,188.536 82.081 C 191.947 82.081,190.659 79.270,187.050 78.839 C 185.431 78.645,183.260 79.333,182.226 80.367 M372.749 81.282 C 369.152 84.375,369.622 89.017,373.532 89.017 C 375.321 89.017,375.739 88.344,375.477 85.879 C 375.134 82.638,377.489 81.180,380.933 82.502 C 383.221 83.380,380.388 88.742,374.291 95.074 C 369.684 99.859,369.628 100.009,372.346 100.324 C 379.990 101.208,380.347 101.472,378.549 104.918 C 374.714 112.269,378.112 123.960,384.552 125.577 C 392.096 127.470,393.981 116.407,387.952 105.620 L 385.158 100.621 390.414 94.774 C 397.272 87.146,395.816 85.797,388.502 93.002 C 380.894 100.496,377.559 99.763,382.661 91.718 C 389.536 80.878,382.199 73.153,372.749 81.282 M308.238 81.541 C 305.800 87.894,308.577 102.201,311.855 100.175 C 314.006 98.846,313.079 80.451,310.839 80.018 C 309.806 79.819,308.636 80.504,308.238 81.541 M328.902 85.069 C 323.935 89.051,322.341 88.434,327.095 84.370 C 329.281 82.502,331.362 81.269,331.720 81.630 C 332.077 81.992,330.809 83.540,328.902 85.069 M37.764 94.597 C 38.214 98.396,38.037 100.578,37.279 100.578 C 35.534 100.578,34.682 97.628,34.682 91.582 C 34.682 84.477,36.812 86.561,37.764 94.597 M188.439 97.688 C 188.439 98.642,187.919 99.422,187.283 99.422 C 186.647 99.422,186.127 98.642,186.127 97.688 C 186.127 96.734,186.647 95.954,187.283 95.954 C 187.919 95.954,188.439 96.734,188.439 97.688 M385.440 110.611 C 387.621 117.010,387.792 120.936,385.940 122.081 C 383.742 123.440,380.347 118.086,380.347 113.261 C 380.347 103.972,382.752 102.720,385.440 110.611 M118.745 130.306 C 117.508 131.543,116.763 131.760,116.763 130.884 C 116.763 130.111,115.462 129.480,113.873 129.480 C 111.117 129.480,110.983 129.796,110.983 136.292 C 110.983 143.445,112.915 146.056,115.868 142.894 C 116.895 141.794,117.839 141.693,119.192 142.538 C 120.231 143.187,121.930 143.392,122.968 142.993 C 125.633 141.971,125.683 130.045,123.027 129.025 C 120.679 128.124,121.031 128.019,118.745 130.306 M127.399 129.711 C 123.568 133.542,126.586 145.520,130.813 143.258 C 134.488 141.291,133.331 128.324,129.480 128.324 C 129.098 128.324,128.162 128.948,127.399 129.711 M137.623 131.447 C 135.308 134.402,135.137 134.457,135.644 132.081 C 135.950 130.650,135.728 129.480,135.152 129.480 C 134.576 129.480,134.104 132.632,134.104 136.484 C 134.104 140.647,134.553 143.212,135.210 142.806 C 135.818 142.430,136.022 141.359,135.664 140.425 C 135.306 139.492,135.528 138.728,136.158 138.728 C 136.787 138.728,137.575 139.769,137.907 141.040 C 138.240 142.312,139.056 143.353,139.720 143.353 C 140.486 143.353,140.354 141.985,139.359 139.618 C 138.015 136.423,138.036 135.405,139.500 132.574 C 141.811 128.105,140.744 127.464,137.623 131.447 M145.859 136.127 C 146.000 141.792,146.195 142.663,146.571 139.306 L 147.089 134.682 148.479 138.659 C 150.817 145.342,152.601 144.413,152.601 136.513 C 152.601 132.595,152.089 129.480,151.445 129.480 C 150.809 129.480,150.269 130.910,150.244 132.659 L 150.199 135.838 148.565 132.081 C 146.181 126.594,145.642 127.400,145.859 136.127 M155.768 129.625 C 152.787 131.294,152.924 141.669,155.948 143.288 C 157.562 144.152,158.498 144.027,159.505 142.814 C 161.173 140.805,160.650 136.195,158.681 135.547 C 157.651 135.208,157.447 136.079,157.958 138.635 C 158.416 140.925,158.206 142.197,157.370 142.197 C 156.580 142.197,156.069 139.927,156.069 136.416 C 156.069 133.237,156.590 130.636,157.225 130.636 C 157.861 130.636,158.382 131.416,158.382 132.370 C 158.382 133.324,158.902 134.104,159.538 134.104 C 161.176 134.104,160.973 131.151,159.236 129.709 C 158.273 128.910,157.097 128.882,155.768 129.625 M172.866 130.190 C 170.679 132.377,170.576 131.791,173.950 136.364 C 176.667 140.046,176.869 142.197,174.498 142.197 C 173.900 142.197,173.410 141.385,173.410 140.394 C 173.410 139.403,172.913 138.899,172.305 139.275 C 170.350 140.483,172.447 143.489,174.991 143.125 C 178.384 142.638,178.736 139.046,175.706 135.821 C 172.930 132.866,173.527 129.490,176.404 131.877 C 177.686 132.941,178.035 132.856,178.035 131.479 C 178.035 128.920,174.914 128.142,172.866 130.190 M181.144 129.658 C 178.487 131.144,178.683 132.589,182.089 136.636 C 183.683 138.530,184.644 140.635,184.224 141.313 C 183.735 142.105,182.944 141.838,182.015 140.568 C 181.191 139.441,180.268 139.077,179.869 139.722 C 178.630 141.727,182.662 144.789,184.516 143.251 C 186.802 141.353,186.514 138.711,183.694 135.709 C 180.993 132.834,181.682 129.542,184.496 131.877 C 185.778 132.941,186.127 132.856,186.127 131.479 C 186.127 129.195,183.613 128.276,181.144 129.658 M215.648 129.696 C 214.290 133.655,213.142 143.353,214.031 143.353 C 214.580 143.353,215.029 142.832,215.029 142.197 C 215.029 140.529,218.208 140.771,218.821 142.486 C 220.218 146.399,220.848 141.592,219.676 135.950 C 218.339 129.510,216.625 126.848,215.648 129.696 M230.235 129.765 C 228.234 131.766,228.624 134.650,231.214 136.994 C 233.406 138.978,234.379 142.197,232.786 142.197 C 232.380 142.197,231.356 141.286,230.511 140.173 C 229.148 138.378,228.971 138.362,228.939 140.032 C 228.877 143.191,231.654 144.709,234.153 142.882 C 236.456 141.198,235.086 135.260,232.395 135.260 C 231.745 135.260,231.214 134.220,231.214 132.948 C 231.214 131.676,231.734 130.636,232.370 130.636 C 233.006 130.636,233.526 131.156,233.526 131.792 C 233.526 132.428,234.046 132.948,234.682 132.948 C 236.605 132.948,235.980 130.793,233.703 129.575 C 232.234 128.788,231.152 128.848,230.235 129.765 M142.197 136.416 C 142.197 140.270,142.710 143.353,143.353 143.353 C 143.995 143.353,144.509 140.270,144.509 136.416 C 144.509 132.563,143.995 129.480,143.353 129.480 C 142.710 129.480,142.197 132.563,142.197 136.416 M165.132 136.418 L 164.740 143.357 168.208 143.281 C 171.442 143.211,171.501 143.135,169.075 142.161 C 166.165 140.991,165.519 137.572,168.208 137.572 C 169.162 137.572,169.942 137.052,169.942 136.416 C 169.942 135.780,169.124 135.260,168.123 135.260 C 167.013 135.260,166.456 134.472,166.694 133.237 C 166.908 132.124,167.683 131.214,168.417 131.214 C 169.150 131.214,170.140 130.824,170.617 130.347 C 171.093 129.870,170.143 129.480,168.503 129.480 C 165.675 129.480,165.503 129.833,165.132 136.418 M187.283 136.416 C 187.283 143.245,187.333 143.351,190.462 143.218 C 192.418 143.136,192.863 142.881,191.618 142.556 C 189.153 141.911,188.902 137.572,191.329 137.572 C 192.283 137.572,193.064 137.052,193.064 136.416 C 193.064 135.780,192.283 135.260,191.329 135.260 C 188.902 135.260,189.153 130.921,191.618 130.277 C 192.863 129.951,192.418 129.696,190.462 129.614 C 187.333 129.482,187.283 129.587,187.283 136.416 M194.220 136.416 C 194.220 140.726,194.705 143.353,195.502 143.353 C 196.282 143.353,196.603 141.799,196.322 139.387 C 195.763 134.598,197.107 134.958,198.088 139.860 C 199.328 146.063,201.164 143.714,201.004 136.127 C 200.881 130.291,200.709 129.680,200.111 132.948 L 199.369 136.994 198.011 133.237 C 195.873 127.324,194.220 128.711,194.220 136.416 M203.179 130.245 C 204.086 130.611,204.624 133.163,204.624 137.091 C 204.624 144.972,206.695 145.353,207.165 137.557 C 207.619 130.028,209.619 130.041,209.556 137.574 C 209.529 140.752,209.969 143.353,210.534 143.353 C 211.098 143.353,211.561 140.231,211.561 136.416 L 211.561 129.480 206.647 129.571 C 203.945 129.621,202.384 129.925,203.179 130.245 M221.965 136.348 C 221.965 143.798,222.494 144.704,226.012 143.289 C 227.975 142.499,228.018 142.347,226.301 142.278 C 224.629 142.211,224.277 141.092,224.277 135.838 C 224.277 132.341,223.757 129.480,223.121 129.480 C 222.480 129.480,221.965 132.540,221.965 136.348 M117.166 133.315 C 117.580 132.901,117.919 133.981,117.919 135.714 C 117.919 137.447,117.458 138.580,116.894 138.232 C 116.331 137.883,115.586 138.685,115.238 140.014 C 114.256 143.771,112.139 141.399,112.139 136.541 C 112.139 131.425,113.284 129.788,115.111 132.287 C 115.828 133.267,116.752 133.729,117.166 133.315 M122.543 136.416 C 122.543 139.595,122.023 142.197,121.387 142.197 C 120.751 142.197,120.231 139.595,120.231 136.416 C 120.231 133.237,120.751 130.636,121.387 130.636 C 122.023 130.636,122.543 133.237,122.543 136.416 M130.636 136.416 C 130.636 139.595,130.116 142.197,129.480 142.197 C 128.844 142.197,128.324 139.595,128.324 136.416 C 128.324 133.237,128.844 130.636,129.480 130.636 C 130.116 130.636,130.636 133.237,130.636 136.416 " stroke="none" fill="#000000" fill-rule="evenodd"></path></g></svg>